{"title":"BOB THE BUILDER-LEGEND OF THE GOLDEN HAMMER IN XVID BY WINKER","uid":5606644,"size":842372285,"categoryP":"video","categoryS":"movies","magnet":"?xt=urn:btih:a95f741e23af673cd49defb7d695853c72228f8f&amp;dn=BOB+THE+BUILDER-LEGEND+OF+THE+GOLDEN+HAMMER+IN+XVID+BY+WINKER&amp;tr=udp%3A%2F%2Ftracker.openbittorrent.com%3A80&amp;tr=udp%3A%2F%2Fopen.demonii.com%3A1337&amp;tr=udp%3A%2F%2Ftracker.coppersurfer.tk%3A6969&amp;tr=udp%3A%2F%2Fexodus.desync.com%3A6969","seeders":2,"leechers":0,"uploader":"alanwatson","files":2,"time":1275621527,"description":"Product Description\nIn their new home of Fixham Harbour, Bob and the team set to work tackling exciting new building jobs, and making new friends. But when Spud and Scrambler learn of an amazing treasure, the pirate Brickbeard's Golden Hammer, hidden somewhere in Fixham they decide that building can wait, and they must find the hammer to give to Bob. Help them follow the clues and find the Golden Hammer in this all-new special !\n\n\nSynopsis\nEveryone's favourite fix-it man Bob the Builder sets to work on some exciting building projects in his new home of Fixham Harbour. Spud and Scrambler, however, are more interested in hunting for treasure after they learn of the pirate Blackbeard's Golden Hammer. Will the pair put all the clues together and track down the hidden bounty? Find out in this great new adventure.\n\nFormat : AVI\nFormat/Info : Audio Video Interleave\nFile size : 803 MiB\nDuration : 59mn 46s\nOverall bit rate : 1 879 Kbps\n\nVideo\nID : 0\nFormat : MPEG-4 Visual\nFormat profile : Simple@L3\nFormat settings, BVOP : No\nFormat settings, QPel : No\nFormat settings, GMC : No warppoints\nFormat settings, Matrix : Default (H.263)\nCodec ID : XVID\nCodec ID/Hint : XviD\nDuration : 59mn 46s\nBit rate : 1 676 Kbps\nWidth : 702 pixels\nHeight : 576 pixels\nDisplay aspect ratio : 16:9\nFrame rate : 25.000 fps\nResolution : 8 bits\nColorimetry : 4:2:0\nScan type : Progressive\nBits/(Pixel*Frame) : 0.166\nStream size : 717 MiB (89%)\nWriting library : XviD 1.1.2 (UTC 2006-11-01)\n\nAudio\nID : 1\nFormat : AC-3\nFormat/Info : Audio Coding 3\nCodec ID : 2000\nDuration : 59mn 46s\nBit rate mode : Constant\nBit rate : 192 Kbps\nChannel(s) : 2 channels\nChannel positions : L R\nSampling rate : 48.0 KHz\nStream size : 82.1 MiB (10%)\nAlignment : Aligned on interleaves\nInterleave, duration : 32 ms (0.80 video frame)\nInterleave, preload duration : 512 ms","torrent":{"xt":"urn:btih:a95f741e23af673cd49defb7d695853c72228f8f","amp;dn":"BOB+THE+BUILDER-LEGEND+OF+THE+GOLDEN+HAMMER+IN+XVID+BY+WINKER","amp;tr":["udp%3A%2F%2Ftracker.openbittorrent.com%3A80","udp%3A%2F%2Fopen.demonii.com%3A1337","udp%3A%2F%2Ftracker.coppersurfer.tk%3A6969","udp%3A%2F%2Fexodus.desync.com%3A6969"],"infoHash":"a95f741e23af673cd49defb7d695853c72228f8f","infoHashBuffer":{"type":"Buffer","data":[169,95,116,30,35,175,103,60,212,157,239,183,214,149,133,60,114,34,143,143]},"announce":[],"urlList":[]}}